<svg id="Layer_1" data-name="Layer 1" xmlns="http://www.w3.org/2000/svg" viewBox="0 0 38.87047 40.99801"><defs><style>.cls-1{fill:none;stroke:#616161;stroke-miterlimit:10;stroke-width:2px;}</style></defs><title>spell_image_02</title><path class="cls-1" d="M160.99971,139.002c-2.24776-.00363-1.208,1.719-2.33192,3.66558-1.12417,1.94711-1.10278,1.95945-2.22695,3.90656-1.126,1.95025-1.058,1.98949-2.184,3.93974s-3.30875,1.90481-2.18592,3.85687c1.12074,1.94843,2.17683.02708,4.42459.02708,2.24972,0,2.24972.07344,4.49943.07344,2.25127,0,2.25127-.12128,4.50253-.12128s3.20851,1.9137,4.33677-.03443c1.1265-1.9451-.86793-1.9027-1.99181-3.84932-1.12417-1.94711-1.30452-1.843-2.42869-3.79009-1.126-1.95025-1.73365-1.73083-2.37208-3.89039C162.3587,140.47555,163.25166,139.00563,160.99971,139.002Z" transform="translate(-141.58263 -138.00199)"/><path class="cls-1" d="M151.99969,154.60133c-2.24775-.00363-1.20643,1.709-2.33032,3.65561-1.12416,1.94711-1.10812,1.95637-2.23228,3.90348-1.126,1.95025-.92136,2.06839-2.04734,4.01864s-3.64835,1.947-2.52552,3.899c1.12074,1.94843,2.38353.13375,4.63129.13375,2.24972,0,2.24972-.03953,4.49943-.03953,2.25127,0,2.25127-.28639,4.50253-.28639s3.50514,2.138,4.6334.18987c1.1265-1.9451-1.28348-2.00584-2.40736-3.95245-1.12417-1.94711-1.23307-1.88424-2.35724-3.83135-1.126-1.95025-1.60629-1.78179-2.24556-3.9411C153.4382,156.04554,154.25165,154.605,151.99969,154.60133Z" transform="translate(-141.58263 -138.00199)"/><path class="cls-1" d="M170.00026,154.252c-2.24776-.00363-.976,2.19169-2.09984,4.1383-1.12416,1.94712-1.42168,1.77534-2.54585,3.72245-1.126,1.95025-.87,2.098-1.996,4.04826s-3.4229,1.85326-2.30007,3.80533c1.12074,1.94843,2.18929-.02062,4.437-.02062,2.24972,0,2.24972-.18629,4.49943-.18629,2.25127,0,2.25127.26319,4.50253.26319s3.528,2.01453,4.65628.0664c1.1265-1.9451-1.20914-2.07522-2.333-4.02183-1.12417-1.94712-1.16-1.92642-2.28417-3.87354-1.126-1.95024-1.72813-1.69873-2.34133-3.86559C171.49862,155.86643,172.25221,154.25566,170.00026,154.252Z" transform="translate(-141.58263 -138.00199)"/><path class="cls-1" d="M169.88431,154.29585c1.49838-1.49839,1.76793-1.22885,3.26632-2.72724,1.5008-1.5008,1.48612-1.51549,2.98692-3.01629s1.31122-1.6904,2.812-3.1912" transform="translate(-141.58263 -138.00199)"/><path class="cls-1" d="M142.90417,145.50737c1.49839,1.49839,1.75664,1.24015,3.255,2.73854,1.50081,1.5008,1.31091,1.6907,2.81171,3.19151s1.37653,1.62508,2.87733,3.12589" transform="translate(-141.58263 -138.00199)"/><path class="cls-1" d="M161.01475,179c0-2.25.01817-2.25.01817-4.5s-.16832-2.25-.16832-4.5" transform="translate(-141.58263 -138.00199)"/></svg>